<?xml version="1.0" standalone="no"?>
<!DOCTYPE svg PUBLIC "-//W3C//DTD SVG 20010904//EN"
 "http://www.w3.org/TR/2001/REC-SVG-20010904/DTD/svg10.dtd">
<svg version="1.0" xmlns="http://www.w3.org/2000/svg"
 width="96.000000pt" height="96.000000pt" viewBox="0 0 96.000000 96.000000"
 preserveAspectRatio="xMidYMid meet">

<g transform="translate(0.000000,96.000000) scale(0.100000,-0.100000)"
fill="#000000" stroke="none">
<path d="M685 751 c-64 -27 -81 -110 -32 -158 60 -61 162 -19 162 67 0 66 -72
116 -130 91z"/>
<path d="M195 700 c-44 -45 -48 -52 -39 -77 5 -17 24 -35 46 -46 33 -16 40
-17 73 -3 50 21 71 72 51 120 -14 34 -41 56 -68 56 -8 0 -36 -22 -63 -50z"/>
<path d="M670 511 c-15 -5 -23 -13 -20 -22 2 -8 6 -86 8 -175 3 -140 1 -163
-13 -177 -15 -16 -8 -17 104 -17 158 0 154 -4 149 154 -3 136 -19 176 -82 216
-37 23 -108 33 -146 21z"/>
<path d="M168 396 l-108 -112 0 -62 c0 -95 11 -102 158 -102 84 1 112 3 100
11 -16 9 -18 28 -18 164 0 84 4 165 9 178 8 20 6 27 -5 31 -9 3 -19 5 -22 5
-4 -1 -55 -52 -114 -113z"/>
</g>
</svg>
